<svg xmlns="http://www.w3.org/2000/svg" viewBox="0 0 512 512" id="healthcare">
  <path fill="#e4222e" d="M250,31.08h0a80.49,80.49,0,0,0-113.84,0h0a80.49,80.49,0,0,0,0,113.84L241.86,250.63a20,20,0,0,0,28.28,0L375.85,144.92a80.49,80.49,0,0,0,0-113.84h0a80.49,80.49,0,0,0-113.84,0h0A8.5,8.5,0,0,1,250,31.08Z"></path>
  <path fill="#c0232c" d="M375.85,31.08h0A80.4,80.4,0,0,0,303.93,8.91a80.07,80.07,0,0,1,41.92,22.17h0a80.49,80.49,0,0,1,0,113.84L241,249.78l.86.85a20,20,0,0,0,28.28,0L375.85,144.92A80.49,80.49,0,0,0,375.85,31.08Z"></path>
  <path fill="#f69531" d="M504.5,469.58V512H330.87V469.57a31.52,31.52,0,0,1,22.32-30.14l15.33-4.68.26-.08,6.82-2.07h0l9.8-3a15.72,15.72,0,0,0,11.16-15.07v-7.18h41.82v7.07a15.76,15.76,0,0,0,11.16,15.07l16.09,4.9.81.25,15.73,4.79A31.52,31.52,0,0,1,504.5,469.58Z"></path>
  <path fill="#f48a31" d="M482.17,439.44l-15.73-4.79-.81-.25-16.09-4.9a15.76,15.76,0,0,1-11.16-15.07v-7.07h-30v7.07a15.76,15.76,0,0,0,11.16,15.07l16.09,4.9.81.25,15.73,4.79a31.52,31.52,0,0,1,22.33,30.14V512h30V469.58A31.52,31.52,0,0,0,482.17,439.44Z"></path>
  <path fill="#fdd8ae" d="M465.63,434.4l0,.25c-2.72,2.71-20.7,20-48.12,18.23C393.61,451.3,379,436.32,375.6,432.6h0l9.8-3a15.75,15.75,0,0,0,11.16-15.07v-7.18h41.82v7.07a15.67,15.67,0,0,0,1.74,7.19,15.73,15.73,0,0,0,9.42,7.88Z"></path>
  <path fill="#57565c" d="M451.41,367.67H383.94l-6.24-26.51a27.1,27.1,0,0,1,26.36-33.37h.41c6.41.08,10.74,1.17,17.76,2.59,3.57.72,7.71,1.5,12.38,2.28a27.17,27.17,0,0,1,22,33Z"></path>
  <path fill="#3c3b41" d="M434.61,312.66c-4.67-.78-8.81-1.56-12.38-2.28-7-1.42-11.35-2.51-17.76-2.59h-.41a27.22,27.22,0,0,0-6.37.72c2.9.47,5.85,1.12,9.54,1.87s7.71,1.5,12.38,2.28a27.17,27.17,0,0,1,22,33q-2.59,11-5.18,22h15q2.59-11,5.18-22A27.17,27.17,0,0,0,434.61,312.66Z"></path>
  <path fill="#fbbf7d" d="M440.12,421.62A33.64,33.64,0,0,1,395,421.4a15.76,15.76,0,0,0,1.57-6.86v-7.18h41.82v7.07A15.67,15.67,0,0,0,440.12,421.62Z"></path>
  <path fill="#fdd8ae" d="M451.34,381.54a33.66,33.66,0,1,1-67.31,0V368.21c-.49-7.09,1-11.6,3.91-14.2,5.64-5.05,13.29,0,20.18-5.18s12.33-6.84,19.39-1.61c7.51,5.57,14.49,1.41,19.92,6.79,2.14,2.12,4.4,6.09,3.91,14.2Z"></path>
  <path fill="#fbbf7d" d="M447.43,354c-5.43-5.38-12.41-1.22-19.92-6.79-5.84-4.33-10.67-3.87-16-.69.33.22.66.44,1,.69,7.51,5.57,14.49,1.41,19.92,6.79,2.14,2.12,4.4,6.09,3.91,14.2v13.33a33.66,33.66,0,0,1-26.15,32.81,33.64,33.64,0,0,0,41.15-32.81V368.21C451.83,360.1,449.57,356.13,447.43,354Z"></path>
  <circle cx="115.5" cy="268.15" r="22.66" fill="#57565c"></circle>
  <path fill="#3c3b41" d="M115.5,245.49a22.71,22.71,0,0,0-7.5,1.27,22.67,22.67,0,0,1,0,42.78,22.66,22.66,0,1,0,7.5-44.05Z"></path>
  <path fill="#57565c" d="M157.45,340c-2.72,23.94-23.89,40.94-45.9,38.93-19.43-1.77-35.84-18-38-38.93q-1.31-5.52-2.6-11.06a45,45,0,0,1,44.82-55.32l1.48,0A45,45,0,0,1,160.05,329Z"></path>
  <path fill="#3c3b41" d="M117.21,273.64l-1.48,0a46,46,0,0,0-7.84.51A45,45,0,0,1,145.05,329l-2.6,11c-2.26,19.88-17.24,35-34.86,38.36a39.73,39.73,0,0,0,4,.57c22,2,43.18-15,45.9-38.93l2.6-11A45,45,0,0,0,117.21,273.64Z"></path>
  <path fill="#fecc30" d="M223.5,461.06V512H7.5V461.05a39.21,39.21,0,0,1,27.77-37.5l19.06-5.82h0L64,414.79l11.37-3.46a19.58,19.58,0,0,0,13.88-18.74v-8.94h52v8.8a19.6,19.6,0,0,0,13.88,18.74l21,6.41,2.05.62,17.51,5.34A39.21,39.21,0,0,1,223.5,461.06Z"></path>
  <path fill="#fdd8ae" d="M176.16,417.6c-3.38,3.37-25.76,24.93-59.87,22.68C86,438.28,67.71,418.93,64,414.79l11.37-3.46a19.58,19.58,0,0,0,13.88-18.74v-8.94h52v8.8a19.6,19.6,0,0,0,13.88,18.74Z"></path>
  <path fill="#fdd8ae" d="M174.23 419.44a83 83 0 0 1-33.65 18.45 39.14 39.14 0 0 1 20.19-14.34zM156 362.15c-3.36 16.85-18.21 47.29-39.46 47.36-22.77.09-37.63-31.17-40.16-49.09-3-21.11 10.54-36 30.46-47.34-.57.32 7.14 7.91 8 8.62 4.93 4.21 11.76 6.67 18.58 7.73 5.76.9 13 1 16.59 5.57C156.17 342.87 157.88 352.73 156 362.15z"></path>
  <path fill="#fbbf7d" d="M150,335c-3.61-4.6-10.83-4.67-16.59-5.57-6.82-1.06-13.65-3.52-18.58-7.73-.83-.71-8.54-8.3-8-8.62a105,105,0,0,0-9.59,6.14c1.24,1.24,2.29,2.24,2.56,2.48,4.93,4.21,11.76,6.67,18.58,7.73,5.76.9,13,1,16.59,5.57,6.19,7.87,7.9,17.73,6,27.15-3,14.87-14.88,40.29-32.22,46.13a24.77,24.77,0,0,0,7.76,1.23c21.25-.07,36.1-30.51,39.46-47.36C157.88,352.73,156.17,342.87,150,335Z"></path>
  <path fill="#57565c" d="M295.25,331.34l-1.12,4.16L218,331.34l-7.15-33C206.24,277.2,221,256.74,241,256.85h.47c7.33.1,12.3,1.45,20.34,3.22,4.09.9,8.83,1.87,14.17,2.84,17.74,3.22,29.3,22,25.18,41Q298.21,317.65,295.25,331.34Z"></path>
  <path fill="#3c3b41" d="M276,262.91c-5.34-1-10.08-1.94-14.17-2.84-8-1.77-13-3.12-20.34-3.22H241a29.08,29.08,0,0,0-6.38.69c3.74.58,7.43,1.48,12.19,2.53,4.09.9,8.83,1.87,14.17,2.84,17.74,3.22,29.3,22,25.18,41q-3,13.69-5.93,27.38l-.9,3.35,14.78.81,1.12-4.16q3-13.68,5.93-27.38C305.3,285,293.74,266.13,276,262.91Z"></path>
  <path fill="#f8be32" d="M223.5,461.06V512H133V461.05a39.21,39.21,0,0,1,27.77-37.5l17.44-5.33,17.51,5.34A39.21,39.21,0,0,1,223.5,461.06Z"></path>
  <path fill="#fbbf7d" d="M174.23,419.44a83,83,0,0,1-33.65,18.45,39.14,39.14,0,0,1,20.19-14.34Z"></path>
  <path fill="#f48a31" d="M379,461.06V512H330.87V469.57a31.52,31.52,0,0,1,22.32-30.14l15.33-4.68.26-.08A39.12,39.12,0,0,1,379,461.06Z"></path>
  <path fill="#1cabe1" d="M364,461.06V512H148V461.05a39.21,39.21,0,0,1,27.77-37.5l18.44-5.63.62-.19h0l21-6.4a19.48,19.48,0,0,0,8.94-5.73c.11-.12.22-.24.32-.37a19.58,19.58,0,0,0,4.62-12.64q1.14-9.36,2.3-18.73a38.56,38.56,0,0,1,14.54-19.67c4-2.73,14-9.51,23.24-5.5,8.06,3.5,13,14,11.47,25.79.22,7.36.4,13.29.48,18a19.51,19.51,0,0,0,4.65,12.67l.37.43a19.6,19.6,0,0,0,8.86,5.64l21,6.41.5.15,19.06,5.81A39.21,39.21,0,0,1,364,461.06Z"></path>
  <path fill="#199ad5" d="M336.22,423.56l-19.06-5.81-.5-.15-21-6.41a19.6,19.6,0,0,1-8.86-5.64l-.37-.43a19.51,19.51,0,0,1-4.65-12.67c-.08-4.68-.26-10.61-.48-18,1.49-11.75-3.41-22.29-11.47-25.79-9.25-4-19.2,2.76-23.23,5.49,3.8,5,5.71,12.39,4.7,20.3.22,7.36.4,13.29.48,18a19.51,19.51,0,0,0,4.65,12.67l.37.43a19.6,19.6,0,0,0,8.86,5.64l21,6.41.5.15,19.06,5.81A39.21,39.21,0,0,1,334,461.06V512h30V461.06A39.21,39.21,0,0,0,336.22,423.56Z"></path>
  <path fill="#fdd8ae" d="M295.63,411.19l-38.7,17.51-62.09-11,21-6.4a19.58,19.58,0,0,0,13.88-18.74c.16-1.28.31-2.55.47-3.83.6-5,1.22-9.93,1.83-14.9a38.56,38.56,0,0,1,14.54-19.67c4-2.73,14-9.51,23.24-5.5,8.06,3.5,13,14,11.47,25.79.17,5.64.31,10.44.41,14.48,0,1.24.05,2.4.07,3.49a19.6,19.6,0,0,0,13.88,18.74Z"></path>
  <path fill="#fbbf7d" d="M281.68,389c-6.78,8.82-15.78,15.19-25.67,15.19s-19-6.47-25.82-15.39c.6-5,1.22-9.93,1.83-14.9a38.56,38.56,0,0,1,14.54-19.67c4-2.73,14-9.51,23.24-5.5,8.06,3.5,13,14,11.47,25.79C281.44,380.12,281.58,384.92,281.68,389Z"></path>
  <path fill="#fdd8ae" d="M294.06,340.64c0,19.73-17,48.51-38.05,48.51s-38-28.78-38-48.51V326.49c-.55-7.52,1.15-12.31,4.43-15.07,6.37-5.35,15,0,22.8-5.49s13.94-7.26,21.91-1.71c8.5,5.91,16.39,1.5,22.52,7.2,2.42,2.26,5,6.47,4.43,15.07Z"></path>
  <path fill="#fbbf7d" d="M289.63,311.42c-6.13-5.7-14-1.29-22.52-7.2-6.22-4.33-11.43-4.14-17.06-1.27a21.3,21.3,0,0,1,2.06,1.27c8.5,5.91,16.39,1.5,22.52,7.2,2.42,2.26,5,6.47,4.43,15.07v14.15c0,17.31-13.13,41.6-30.55,47.28a23.91,23.91,0,0,0,7.5,1.23c21,0,38.05-28.78,38.05-48.51V326.49C294.6,317.89,292.05,313.68,289.63,311.42Z"></path>
  <path fill="#1481c4" d="M255.32 424.13l-27.36 22a7 7 0 0 1-9.66-.85l-24.09-27.38.62-.19h0l21-6.4a19.48 19.48 0 0 0 8.94-5.73zM317.16 417.75L293 445.31a7 7 0 0 1-9.65.84l-27.36-22 30.77-18.58a19.6 19.6 0 0 0 8.86 5.64l21 6.41z"></path>
  <path fill="#fff" d="M306.48,113.68H278.39a4.08,4.08,0,0,1-4.07-4.08V81.51a4.07,4.07,0,0,0-4.07-4.07h-28.5a4.07,4.07,0,0,0-4.07,4.07V109.6a4.08,4.08,0,0,1-4.07,4.08H205.52a4.07,4.07,0,0,0-4.07,4.07v28.5a4.07,4.07,0,0,0,4.07,4.07h28.09a4.07,4.07,0,0,1,4.07,4.07v28.09a4.07,4.07,0,0,0,4.07,4.07h28.5a4.07,4.07,0,0,0,4.07-4.07V154.39a4.07,4.07,0,0,1,4.07-4.07h28.09a4.07,4.07,0,0,0,4.07-4.07v-28.5A4.07,4.07,0,0,0,306.48,113.68Z"></path>
  <path fill="#e1e1e3" d="M306.48,113.68H278.39a4.08,4.08,0,0,1-4.07-4.08V81.51a4.07,4.07,0,0,0-4.07-4.07h-28.5a4.07,4.07,0,0,0-4.07,4.07V92.44h17.57a4.07,4.07,0,0,1,4.07,4.07V124.6a4.08,4.08,0,0,0,4.07,4.08h28.09a4.07,4.07,0,0,1,4.07,4.07v17.57h10.93a4.07,4.07,0,0,0,4.07-4.07v-28.5A4.07,4.07,0,0,0,306.48,113.68Z"></path>
  <path fill="#3c3b41" d="M281.82,182.41V157.75h24.66a11.58,11.58,0,0,0,11.57-11.58V117.68a11.58,11.58,0,0,0-11.57-11.57H281.82V81.44a11.58,11.58,0,0,0-11.57-11.57h-28.5a11.58,11.58,0,0,0-11.57,11.57v24.67H205.51a11.58,11.58,0,0,0-11.57,11.57v28.49a11.58,11.58,0,0,0,11.57,11.58h24.67v24.66A11.58,11.58,0,0,0,241.75,194h28.5A11.58,11.58,0,0,0,281.82,182.41Zm-15-28.09V179H245.18V154.32a11.58,11.58,0,0,0-11.58-11.57H208.94V121.11H233.6a11.59,11.59,0,0,0,11.58-11.58V84.87h21.64v24.66a11.58,11.58,0,0,0,11.57,11.58h24.66v21.64H278.39A11.58,11.58,0,0,0,266.82,154.32ZM484.35,432.19l-32.61-9.93a8.26,8.26,0,0,1-5.86-7.9v-2.95a41,41,0,0,0,13-29.94V368.76l5-21.45a34.66,34.66,0,0,0-28-42.12c-4.08-.68-8.16-1.43-12.12-2.23l-2.68-.55a79.48,79.48,0,0,0-16.57-2.19h-.37a34.6,34.6,0,0,0-33.7,42.59l6.12,26.06v12.6A41,41,0,0,0,389.06,411v3.47a8.23,8.23,0,0,1-5.85,7.9l-23.83,7.26a46.88,46.88,0,0,0-21-13.31L297.82,404a12.17,12.17,0,0,1-5.71-3.76,12,12,0,0,1-2.51-4.91,12.48,12.48,0,0,1-.35-3c-.07-4.16-.22-9.2-.41-15.44,8-11.15,12.71-25,12.71-36.24v-5.24a7.52,7.52,0,0,0,1-2.47q1.65-7.61,3.29-15.21l2.64-12.17a43.59,43.59,0,0,0-6.2-33.31,38.12,38.12,0,0,0-25-16.71l-1.25-.24L381.15,150.15A88,88,0,0,0,256.7,25.7a1,1,0,0,1-1.41,0L250,31l5.3-5.31A88,88,0,1,0,130.84,150.15L231.26,250.58A38,38,0,0,0,212,263.39a43.68,43.68,0,0,0-8.48,36.49l7,32.24v8.45c0,11.56,5,26,13.49,37.3q-.84,6.88-1.69,13.75c0,.3-.05.6-.05.9a12.1,12.1,0,0,1-8.57,11.57l-20.81,6.34-.2.06-6.92,2.11L157.32,404a12.15,12.15,0,0,1-5.7-3.75,11.77,11.77,0,0,1-2.29-4.15,93.3,93.3,0,0,0,14-32.51,43,43,0,0,0,.28-15.81,55.24,55.24,0,0,0,1.22-6.5l2.49-10.62a52.17,52.17,0,0,0-22.39-56,30.16,30.16,0,1,0-59.62-6.5,30.32,30.32,0,0,0,.7,6.47,52.21,52.21,0,0,0-22.43,56q1.25,5.32,2.5,10.64A52.47,52.47,0,0,0,68.55,352a47.17,47.17,0,0,0,.4,9.37c1.5,10.61,6.29,23,12.64,32.83a12.23,12.23,0,0,1-2.73,6.1,12,12,0,0,1-5.7,3.75l-20.82,6.35-.2.06-19.06,5.82A46.44,46.44,0,0,0,0,461v43.45a7.5,7.5,0,0,0,15,0V461a31.54,31.54,0,0,1,22.46-30.33l18.87-5.76.2-.06,5.24-1.59c8.9,8.69,27.21,22.68,54,24.45q2.82.18,5.52.18a81.67,81.67,0,0,0,22-3A47,47,0,0,0,140.5,461v43.45a7.5,7.5,0,1,0,15,0V461A31.54,31.54,0,0,1,178,430.65l13.91-4.24,20.79,23.76a14.45,14.45,0,0,0,20,1.75l15.84-12.74v65.25a7.5,7.5,0,1,0,15,0V439.72l15.16,12.2a14.46,14.46,0,0,0,20-1.73l21-23.92,14.42,4.4a31.38,31.38,0,0,1,16.59,12l0,0h0A31.4,31.4,0,0,1,356.5,461v43.44a7.5,7.5,0,1,0,15,0V461a46.4,46.4,0,0,0-3.71-18.24l5.66-1.73A70.46,70.46,0,0,0,417,460.29c1.53.1,3,.15,4.51.15,22.56,0,38.77-11.19,46.23-17.63L480,446.54a23.89,23.89,0,0,1,17,23v34.92a7.5,7.5,0,1,0,15,0V469.51A38.81,38.81,0,0,0,484.35,432.19ZM115.5,252.92a15.18,15.18,0,0,1,15.16,15.15,52.54,52.54,0,0,0-13.29-2l-1.49,0a53.07,53.07,0,0,0-15.55,2A15.18,15.18,0,0,1,115.5,252.92ZM78.19,327a37.48,37.48,0,0,1,37.38-46l1.47,0a37.45,37.45,0,0,1,35.7,46.11v.05c-4.74-3.55-10.76-4.31-15.4-4.9-1-.12-1.89-.24-2.79-.38-6.16-1-11.44-3.09-14.79-6-1-.85-4.77-4.67-6.19-6.3-.06-.13-.13-.26-.2-.39a7.5,7.5,0,0,0-10.23-2.8Q86.84,315.77,78.19,327Zm70.45,33.57c-2.95,14.8-16.21,41.28-32.13,41.33h-.06c-9.45,0-16.85-7.89-21.39-14.53A71.58,71.58,0,0,1,83.81,359.3c-2-14.08,4.84-25.8,21.44-36.56,1.64,1.68,3.91,3.93,4.68,4.59,7.06,6,16,8.47,22.3,9.44,1,.17,2.12.3,3.22.44,3.18.4,7.53,1,8.63,2.36C148.59,345.3,150.21,352.77,148.64,360.61Zm-31.86,72.11a69.53,69.53,0,0,1-38.15-14.67A27,27,0,0,0,90.33,410a27.88,27.88,0,0,0,2.09-2.89c7.3,6.47,15.43,9.83,24,9.83h.12c7.79,0,15.28-3.09,22.16-8.93.46.64.94,1.28,1.45,1.89a27.1,27.1,0,0,0,12.77,8.39l7.49,2.29C150.94,426.88,135.79,434,116.78,432.72Zm24.67-293.17A73,73,0,1,1,244.68,36.31a16,16,0,0,0,22.63,0A73,73,0,0,1,370.55,139.55L264.83,245.26a12.49,12.49,0,0,1-17.67,0Zm78.29,164.5-1.59-7.35a28.54,28.54,0,0,1,5.47-23.86,22,22,0,0,1,17.27-8.56h.55c5.56.08,9.61,1,15.73,2.36l3.05.68c4.72,1,9.58,2,14.44,2.9a23.32,23.32,0,0,1,15.18,10.28,28.55,28.55,0,0,1,4,21.8l-.52,2.39c-4.55-3.51-9.41-4-13.4-4.33-3.3-.31-5.92-.55-8.54-2.37-12.55-8.73-22.91-3.65-30.53,1.76-1.89,1.34-4.05,1.41-7.7,1.42S224.41,301.2,219.74,304.05Zm66.81,27.28v9.24c0,17.15-15.39,41-30.54,41s-30.54-23.86-30.54-41V326.42c0-.18,0-.37,0-.55-.33-4.42.3-7.54,1.78-8.78,1-.82,2.57-.91,6-.92,4.42,0,10.48,0,16.34-4.19,3.63-2.57,6.06-3.68,8.19-3.68a8.92,8.92,0,0,1,5.1,2c5.87,4.08,11.57,4.6,15.73,5,3.53.32,4.86.52,5.95,1.54,2.06,1.91,2.25,6,2.06,9.11,0,.16,0,.31,0,.47v4.91Zm-62.92,108.6-16-18.32L218,418.43a27,27,0,0,0,7.41-3.57l16.8,10.1Zm32-24.41L235,403.13A27.18,27.18,0,0,0,237.21,393l.27-2.19a32.67,32.67,0,0,0,36.74.21c0,.49,0,1,0,1.43a26.86,26.86,0,0,0,.79,6.42,26.3,26.3,0,0,0,1.4,4.15Zm32,24.42-18.62-15,17-10.22a27.13,27.13,0,0,0,7.37,3.55l10.44,3.18Zm98.84-94.05L385,339.37a19.66,19.66,0,0,1,3.78-16.82A19.29,19.29,0,0,1,404,315.22h.42c4.81.06,8.32.78,13.63,1.88l2.74.56c4.12.83,8.37,1.62,12.61,2.33a19.65,19.65,0,0,1,15.92,23.89l-.43,1.84a24.24,24.24,0,0,0-9.88-2.57c-3.14-.31-5-.55-7-2-13.21-9.79-24.23-1.47-28.37,1.66-1.41,1.06-3.08,1.12-6.14,1.13S390.42,343.94,386.53,345.89Zm5,21.73c-.28-4,.26-7,1.44-8.1.6-.54,1.85-.6,4.56-.61,4.08,0,9.66,0,15.13-4.16,3.14-2.38,5.08-3.27,6.63-3.27,1.37,0,2.43.71,3.77,1.69,5.42,4,10.65,4.53,14.47,4.91,3.05.3,3.91.47,4.63,1.18,1.35,1.34,2,4.33,1.71,8.43,0,.15,0,.3,0,.45v13.33a26.16,26.16,0,1,1-52.32,0V368.14C391.52,368,391.52,367.79,391.51,367.62ZM418,445.33a54.21,54.21,0,0,1-27.46-9.73,23,23,0,0,0,12.86-15.55,41.06,41.06,0,0,0,28.27.14,23.22,23.22,0,0,0,15.72,16.41l2.38.73A54.66,54.66,0,0,1,418,445.33Z"></path>
</svg>
